<svg width="100" height="86" viewBox="0 0 100 86" fill="none" xmlns="http://www.w3.org/2000/svg">
<path fill-rule="evenodd" clip-rule="evenodd" d="M39.0747 0.201358C38.9376 0.289707 38.6633 0.363137 38.4651 0.364629C38.2648 0.365955 37.8587 0.635476 37.5512 0.971135C37.2468 1.30331 36.8687 1.71174 36.7111 1.87865C36.5535 2.04541 36.3744 2.38902 36.3131 2.64213C36.2516 2.89508 36.0733 3.28859 35.9168 3.5165C35.4713 4.16511 34.9205 5.93258 34.9223 6.70799C34.9245 7.63225 35.5737 8.99759 36.4449 9.90942C37.6991 11.2222 39.7907 11.5915 42.7336 11.0198C45.1644 10.5476 46.341 8.78178 46.1752 5.85484C46.036 3.39682 45.4024 2.05684 44.0408 1.34127C43.8021 1.21579 43.1499 0.870686 42.5916 0.574312C41.53 0.0107375 39.6754 -0.185851 39.0747 0.201358ZM46.426 12.8357C46.4544 12.9211 46.7001 13.1155 46.9718 13.2678C47.2436 13.4202 47.4909 13.6008 47.5213 13.6691C47.5519 13.7374 47.664 13.7936 47.7705 13.7939C47.9621 13.7944 50.0513 14.8022 50.4283 15.0761C50.5355 15.1538 51.0717 15.3882 51.62 15.597C53.2357 16.212 54.9237 16.974 55.2057 17.2155C55.3499 17.339 55.5742 17.4419 55.7042 17.4441C55.8339 17.4462 56.3889 17.6393 56.9373 17.8732C59.3009 18.8812 64.3648 20.6911 65.7439 21.021C66.2923 21.1521 67.04 21.3773 67.4055 21.5214C67.7711 21.6656 68.5529 21.8524 69.1431 21.9366C69.7332 22.0208 70.2709 22.1784 70.338 22.2868C70.4051 22.3952 70.6328 22.4955 70.8438 22.51C71.0547 22.5242 71.3395 22.5786 71.4765 22.6306C72.2195 22.9126 73.31 23.2264 73.8909 23.325C74.912 23.4984 79.6102 25.6423 80.4118 26.3007C81.2948 27.0258 81.6125 27.3811 81.6125 27.643C81.6125 27.9688 80.7578 28.7965 80.024 29.1815C78.2839 30.0942 77.4707 30.5518 76.9137 30.9317C76.5686 31.1673 76.0736 31.4695 75.8139 31.6036C75.5542 31.7375 74.9394 32.1922 74.4477 32.6138C73.9559 33.0355 73.2919 33.5182 72.972 33.6866C72.0418 34.1761 70.3764 35.9265 69.8824 36.9336C68.9173 38.9012 69.2222 42.4051 70.4865 43.8784C70.6429 44.0607 70.8607 44.4897 70.9704 44.8315C71.0802 45.1734 71.2339 45.4531 71.312 45.4531C71.3901 45.4531 71.5073 45.62 71.5721 45.8239C72.107 47.505 74.8968 50.0043 77.1751 50.8433C77.8336 51.0857 78.7462 51.4235 79.2031 51.5937C79.6601 51.7639 80.7443 52.0215 81.6125 52.1661C82.4807 52.3104 83.7145 52.5657 84.3542 52.7333C84.9939 52.9007 85.8538 53.0853 86.2651 53.1434C86.6763 53.2014 87.5362 53.4623 88.1759 53.723C88.8157 53.9839 89.7753 54.3241 90.3081 54.4792C92.1135 55.0042 92.983 56.2412 93.17 58.5502C93.2801 59.9112 93.0154 60.498 91.6654 61.8859C90.2244 63.3673 89.9341 63.537 84.188 66.2572C80.1257 68.1804 73.4695 69.6899 70.2835 69.4106C69.5231 69.344 68.4898 69.2737 67.9871 69.2545C66.3813 69.193 63.5007 68.6993 63.5007 68.4857C63.5007 68.4152 62.9587 68.2672 62.296 68.157C61.6334 68.0466 60.9044 67.8643 60.6759 67.7517C60.4475 67.6393 59.8867 67.4577 59.4297 67.3484C57.412 66.8656 57.3523 66.8399 57.3607 66.4563C57.3688 66.0799 57.4544 65.8992 58.6065 63.8213C59.3634 62.4566 60.4568 60.1211 61.0367 58.6308C61.2495 58.0838 61.4797 57.6113 61.5483 57.581C61.6169 57.5505 61.6729 57.4129 61.6729 57.275C61.6729 57.1371 61.7818 56.8263 61.915 56.5843C62.9334 54.7328 63.5419 51.3568 63.503 47.7737C63.4824 45.8771 63.0941 42.453 62.8475 41.9934C62.7498 41.8114 62.6699 41.4504 62.6699 41.1911C62.6699 40.9319 62.5705 40.5727 62.4491 40.393C62.3276 40.2131 62.1339 39.5065 62.0184 38.8228C61.6551 36.6699 61.1429 34.7962 60.6402 33.7814C60.3734 33.2424 59.9644 32.1981 59.7318 31.4608C59.1371 29.5765 58.5841 28.6773 56.5252 26.2464C55.5525 25.0981 52.0571 22.4279 51.5132 22.418C51.363 22.4151 51.2033 22.3197 51.1583 22.2056C51.0799 22.0069 50.2304 21.5442 48.4727 20.743C48.0211 20.5373 46.9743 20.2371 46.1465 20.0761C45.3185 19.9152 44.3047 19.7002 43.8935 19.5986C42.4756 19.248 39.4807 19.0741 36.1669 19.1496C31.5967 19.2538 31.0896 19.3655 25.6155 21.4741C25.1129 21.6677 24.5147 21.9482 24.2862 22.0974C24.0577 22.2466 23.5149 22.5945 23.0799 22.8703C22.0387 23.5307 21.4661 24.0172 18.2603 26.9668C13.1016 31.713 11.5478 33.5096 10.157 36.3364C9.95513 36.7467 9.55368 37.3807 9.26506 37.7454C8.75278 38.3925 7.86264 39.731 7.2809 40.729C6.42849 42.191 2.28521 50.782 1.94009 51.8027C1.71843 52.4585 1.34672 53.5019 1.11409 54.1213C0.881463 54.7409 0.69104 55.4185 0.69104 55.6271C0.69104 55.8356 0.635043 56.062 0.566418 56.1301C0.0639407 56.6297 -0.201422 65.0802 0.183412 68.3275C0.869001 74.1138 1.44924 76.3984 2.61239 77.8914C3.02447 78.4203 3.54572 79.1311 3.77071 79.4709C4.58075 80.694 6.041 81.95 7.42065 82.6097C8.15177 82.9594 8.86211 83.3122 8.9992 83.3936C10.6087 84.3505 11.6058 84.68 15.895 85.6729C17.8371 86.1226 26.4698 86.1035 27.6095 85.6472C28.0207 85.4826 28.6563 85.3337 29.0219 85.3165C30.2849 85.2572 34.0516 84.376 34.6466 84.0007C34.8431 83.8769 35.2654 83.7222 35.5853 83.6573C35.9052 83.5921 36.3538 83.4386 36.5823 83.3161C36.8108 83.1936 37.708 82.8605 38.5762 82.5755C40.3216 82.003 41.8516 81.3019 43.2065 80.4538C43.6971 80.1469 44.6081 79.6239 45.2311 79.2916C46.6332 78.5438 46.9241 78.2998 50.1522 75.165C53.2865 72.1212 53.121 72.1618 57.1034 73.4571C58.5329 73.922 61.7063 74.6212 63.2099 74.8025C63.9181 74.8879 65.1145 75.0333 65.8685 75.1254C67.5843 75.3351 74.6155 75.1624 76.2122 74.8713C78.3921 74.474 81.2312 73.8154 81.7963 73.5761C82.1065 73.4446 82.7341 73.2238 83.191 73.0853C84.3803 72.7244 85.0708 72.465 86.0068 72.0271C86.459 71.8157 86.9593 71.6427 87.1186 71.6427C87.2782 71.6427 87.4548 71.5681 87.5113 71.4769C87.5678 71.3858 87.8295 71.3112 88.0929 71.3112C88.3562 71.3112 88.6179 71.2366 88.6744 71.1454C88.7309 71.0543 88.8908 70.9797 89.0297 70.9797C89.7299 70.9797 93.6427 69.0473 94.4629 68.2964C94.9348 67.8643 95.3887 67.508 95.4717 67.5047C95.5544 67.5014 96.1398 66.9637 96.7724 66.3096C98.3032 64.7271 99.5953 62.2308 99.8911 60.2843C100.09 58.9755 100.005 56.9526 99.7286 56.4128C99.6532 56.2651 99.3961 55.6596 99.1575 55.067C98.5965 53.6731 97.1924 52.2249 95.6222 51.4203C94.9996 51.1012 94.4528 50.8014 94.4071 50.754C94.3614 50.7064 94.137 50.5723 93.9086 50.4559C93.6801 50.3394 93.1567 50.0619 92.7454 49.8393C92.3342 49.6167 91.8754 49.4339 91.7258 49.4329C91.5765 49.4321 91.24 49.3198 90.9781 49.1836C90.7164 49.0475 90.3768 48.9356 90.2232 48.935C90.0699 48.9345 89.8251 48.8149 89.6794 48.6696C89.3235 48.3145 87.2213 47.5149 85.3512 47.0231C83.9888 46.6649 83.2811 46.4466 82.6926 46.2034C82.4184 46.0902 81.4089 45.7511 80.4494 45.4497C79.4898 45.1486 78.5867 44.8023 78.4423 44.6803C78.298 44.5583 78.1003 44.4585 78.0029 44.4585C77.9056 44.4585 77.5817 44.2309 77.2833 43.953C76.9848 43.6748 76.6025 43.3736 76.4337 43.2833C75.7604 42.9239 74.8357 41.5094 74.7185 40.6595C74.5228 39.24 75.3038 38.1627 78.0375 36.0812C78.4853 35.7402 79.0054 35.3162 79.1935 35.1388C79.3816 34.9615 79.7598 34.7004 80.0339 34.5583C80.3081 34.4165 81.5045 33.6493 82.6926 32.8537C83.8806 32.0581 85.1762 31.2064 85.5715 30.9609C86.3305 30.4898 86.7636 29.7456 86.7636 28.9122C86.7636 27.2715 84.8281 24.9027 82.5281 23.7283C81.7978 23.3555 81.1233 22.9865 81.0291 22.9086C80.8741 22.7803 77.6952 21.5472 76.046 20.9759C75.6805 20.8492 74.858 20.5313 74.2182 20.2692C73.5785 20.0073 72.4195 19.6246 71.6427 19.4187C70.8659 19.2127 70.0284 18.9443 69.7817 18.8224C69.5348 18.7004 69.1049 18.6004 68.8262 18.6004C68.5474 18.6004 68.3194 18.5213 68.3194 18.4249C68.3194 18.3284 68.2413 18.2974 68.146 18.3562C68.0506 18.4151 67.8075 18.3561 67.6059 18.2253C67.4044 18.0945 66.9674 17.937 66.635 17.8755C66.3027 17.814 65.5751 17.579 65.0183 17.3532C64.4615 17.1275 63.8792 16.9428 63.7244 16.9428C63.4507 16.9428 59.8513 15.8767 58.3497 15.3509C55.6036 14.3892 52.2618 13.4139 50.6656 13.1082C48.6713 12.7265 46.3392 12.5765 46.426 12.8357ZM44.1427 24.3999C46.6272 24.749 49.3449 26.5538 51.6988 29.4179C52.7696 30.7206 53.1735 31.4211 53.7767 33.0213C53.897 33.3404 54.1582 34.0085 54.3573 34.5063C54.8921 35.844 55.3144 38.8387 55.4568 42.3037C55.5983 45.7527 55.6033 45.4557 55.3679 47.6908C55.272 48.6024 55.1158 50.0987 55.0211 51.0157C54.7622 53.5198 53.3224 57.2051 51.2688 60.6198C51.0494 60.9845 50.6917 61.6185 50.4737 62.0288C49.5724 63.7253 49.1653 63.7759 45.8874 62.5983C44.4709 62.0894 43.0502 61.5986 42.7303 61.5076C42.4105 61.4166 41.3802 61.0864 40.4411 60.7738C39.5018 60.4612 38.5576 60.2054 38.3428 60.2054C38.1279 60.2054 37.6838 60.0936 37.3556 59.9568C37.0276 59.8201 36.4577 59.7082 36.0891 59.7082C35.7206 59.7082 35.4191 59.6485 35.4191 59.5757C35.4191 59.4199 34.4408 59.0451 34.0342 59.0451C33.8796 59.0451 33.6231 58.9772 33.4644 58.894C33.1711 58.7403 32.3363 58.5689 30.1019 58.2033C28.2818 57.9056 24.7485 57.8204 23.298 58.0393C20.8272 58.4125 18.4705 58.9909 18.4705 59.2243C18.4705 59.2939 18.1952 59.4416 17.8585 59.5524C17.522 59.6633 16.8677 59.9619 16.4046 60.2161C15.9415 60.4703 15.1002 60.9107 14.5349 61.1947C13.9696 61.4788 13.3341 61.8932 13.1225 62.1156C12.911 62.3382 12.6171 62.5216 12.4695 62.5232C12.322 62.5247 12.0229 62.664 11.8049 62.8327C11.1822 63.3144 8.6034 64.5193 7.97829 64.6206C7.57335 64.686 7.30583 64.6254 7.03548 64.4064C6.59482 64.0497 6.588 63.9635 6.82911 61.7801C7.00873 60.1552 7.14149 59.3039 7.5795 56.9732C7.83107 55.6345 9.35412 50.9519 9.81722 50.0943C9.98936 49.7752 10.2406 49.1412 10.3754 48.6853C10.8581 47.0536 13.5497 41.6206 14.3992 40.5632C14.6923 40.1986 15.0655 39.6416 15.2287 39.3255C15.3918 39.0096 16.1319 37.9739 16.8733 37.0241C17.6146 36.0744 18.577 34.8212 19.0117 34.2394C22.0207 30.2124 27.9996 26.0469 32.0404 25.1622C32.6954 25.0189 33.4431 24.8193 33.702 24.7188C35.1882 24.1422 41.0355 23.9635 44.1427 24.3999ZM32.0841 63.5025C33.3604 63.8823 39.6945 66.8647 39.9886 67.2243C40.08 67.3362 40.7156 67.7109 41.401 68.0572C42.0864 68.4035 42.8342 68.7877 43.0626 68.9108C43.2911 69.034 43.7024 69.2178 43.9765 69.3191C44.2507 69.4205 44.6542 69.6511 44.873 69.8318C45.271 70.1602 45.271 70.1602 44.7092 70.86C44.4001 71.2449 44.034 71.7044 43.8958 71.8812C43.7574 72.0579 43.386 72.4309 43.0703 72.71C42.7547 72.989 42.1192 73.5608 41.6579 73.9805C40.5969 74.9461 34.7701 78.2715 34.1372 78.2726C33.9385 78.273 33.1018 78.5206 31.5628 79.0345C31.1326 79.1782 30.6979 79.2448 30.5969 79.1825C30.4959 79.1202 30.2872 79.1785 30.133 79.3118C29.9788 79.4452 29.1423 79.7078 28.2741 79.8952C23.7407 80.8744 18.7458 80.8527 15.7245 79.8409C15.0548 79.6168 14.2749 79.4333 13.9911 79.4333C13.6858 79.4333 13.4361 79.3318 13.3796 79.1846C13.3269 79.0479 13.1855 78.936 13.0652 78.936C12.9449 78.936 12.6242 78.7495 12.3527 78.5216C12.0812 78.2937 11.8072 78.1072 11.7437 78.1072C11.3359 78.1072 9.18181 75.6348 8.9982 74.956C8.63414 73.6116 8.95865 71.7958 9.77402 70.6135C10.6841 69.2939 15.0828 66.2894 17.1412 65.5813C17.7352 65.3769 18.5951 65.0477 19.0521 64.85C20.4294 64.2534 21.6318 63.8436 23.2061 63.4339C25.295 62.8902 30.1528 62.9278 32.0841 63.5025Z" fill="#A5BECF"/>
</svg>
